# xmcd CD database file
#
# Track frame offsets:
#	150
#	20302
#	38557
#	53470
#	80527
#	101138
#	113249
#	131053
#	152153
#	167304
#	189713
#	210377
#	224666
#
# Disc length: 3244 seconds
#
# Revision: 0
# Processed by: cddbd v1.5.2PL0 Copyright (c) Steve Scherf et al.
# Submitted via: jetAudio 7
#
DISCID=a90caa0d
DTITLE=West Weston's Bluesonics - Unknown Album
DYEAR=1900
DGENRE=Blues
TTITLE0=Walkin' Up Town
TTITLE1=Different Sides Of The Tracks
TTITLE2=Two Lovers
TTITLE3=Lemonade
TTITLE4=Should Have Listened To Your Mother
TTITLE5=Oh Baby
TTITLE6=Don't Touch That Girl
TTITLE7=Some Thing
TTITLE8=Worried Over You
TTITLE9=Please Operator
TTITLE10=Please Please Please
TTITLE11=Jumpin' At Deke's
TTITLE12=Deadbeat
EXTD=
EXTT0=
EXTT1=
EXTT2=
EXTT3=
EXTT4=
EXTT5=
EXTT6=
EXTT7=
EXTT8=
EXTT9=
EXTT10=
EXTT11=
EXTT12=
PLAYORDER=
